<svg width="70.000000" height="70.000000" viewBox="0 0 70 70" fill="none" xmlns="http://www.w3.org/2000/svg" xmlns:xlink="http://www.w3.org/1999/xlink">
	<desc>
			Created with Pixso.
	</desc>
	<defs/>
	<g opacity="0.050000">
		<rect id="Rectangle 12" rx="6.000000" width="70.000000" height="70.000000" fill="#263959" fill-opacity="1.000000"/>
	</g>
	<path id="Vector" d="M35 21C27.28 21 21 27.28 21 35C21 42.71 27.28 49 35 49C42.71 49 49 42.71 49 35C49 27.28 42.71 21 35 21ZM41.77 33.89L38.83 33.89C38.8 32.56 38.61 31.31 38.29 30.25C38.92 29.94 39.47 29.57 39.83 29.27C40.99 30.48 41.7 32.1 41.77 33.89ZM39.29 34.48C39.12 34.5 38.97 34.5 38.83 34.53C38.83 34.48 38.83 34.43 38.83 34.38L41.75 34.38C41.75 34.5 41.75 34.63 41.72 34.75C41.31 34.6 40.74 34.53 40.01 34.5L40.01 34.48L39.29 34.48ZM39.51 28.93C39.17 29.2 38.7 29.52 38.14 29.79C37.77 28.76 37.28 27.9 36.69 27.31C37.77 27.63 38.73 28.19 39.51 28.93ZM34.9 27.01C35.14 27.01 35.39 27.04 35.63 27.09C36.49 27.55 37.21 28.61 37.7 30.01C36.91 30.35 35.98 30.6 34.87 30.62L34.87 27.01L34.9 27.01ZM34.9 31.09C36.03 31.07 37.03 30.8 37.87 30.45C38.16 31.46 38.36 32.64 38.38 33.89L34.9 33.89L34.9 31.09ZM32.59 27.31C32 27.9 31.51 28.76 31.16 29.76C30.6 29.47 30.16 29.17 29.81 28.9C30.6 28.17 31.56 27.63 32.59 27.31ZM29.47 29.25C29.84 29.54 30.35 29.91 31.02 30.23C30.7 31.31 30.5 32.54 30.48 33.89L27.53 33.89C27.6 32.1 28.31 30.45 29.47 29.25ZM27.53 34.36L30.45 34.36C30.48 35.73 30.67 37.01 31.02 38.09C30.4 38.41 29.89 38.75 29.52 39.05C28.34 37.84 27.6 36.2 27.53 34.36ZM29.86 39.39C30.21 39.12 30.62 38.83 31.16 38.56C31.51 39.51 31.97 40.32 32.51 40.91C31.53 40.62 30.62 40.08 29.86 39.39ZM34.41 41.23C34.11 41.23 33.82 41.18 33.52 41.16C32.74 40.67 32.07 39.66 31.61 38.36C32.37 38.02 33.32 37.77 34.41 37.72L34.41 41.23ZM34.41 37.25C33.25 37.3 32.27 37.55 31.46 37.92C31.14 36.89 30.97 35.66 30.94 34.38L34.41 34.38L34.41 37.25ZM34.41 33.89L30.94 33.89C30.97 32.64 31.14 31.46 31.46 30.43C32.27 30.77 33.28 31.04 34.41 31.09L34.41 33.89ZM34.41 30.62C33.3 30.57 32.37 30.33 31.61 29.98C32.1 28.58 32.83 27.55 33.67 27.09C33.91 27.06 34.16 27.04 34.41 27.01L34.41 30.62ZM36.64 38.24L36.64 39.1L36.64 39.64L36.64 40.37C36.37 40.69 36.1 40.96 35.78 41.16C35.49 41.21 35.19 41.23 34.9 41.23L34.9 37.72C35.54 37.75 36.1 37.84 36.64 37.97L36.64 38.24ZM36.64 35.54C36.59 35.68 36.57 35.85 36.57 36.03C36.57 36.2 36.59 36.37 36.64 36.52L36.64 36.76L36.64 37.48C36.1 37.35 35.54 37.25 34.9 37.23L34.9 34.36L38.36 34.36C38.36 34.43 38.36 34.5 38.36 34.55C37.43 34.68 36.91 34.95 36.69 35.41L36.64 35.54ZM42.39 41.68C42.39 41.77 42.36 41.85 42.36 41.87C42.36 42.68 41.21 42.95 39.66 42.95C38.16 42.95 37.03 42.71 36.96 41.95L36.96 41.14C37.25 41.8 38.34 42.04 39.69 42.04C40.96 42.04 42.07 41.82 42.41 41.21L42.41 41.68L42.39 41.68ZM42.39 40.28C42.39 40.37 42.36 40.45 42.36 40.47C42.36 41.28 41.21 41.55 39.66 41.55C38.16 41.55 37.03 41.31 36.96 40.55L36.96 39.74C37.25 40.4 38.34 40.64 39.69 40.64C40.96 40.64 42.07 40.42 42.41 39.81L42.41 40.28L42.39 40.28ZM42.39 38.83C42.39 38.92 42.36 39 42.36 39.02C42.36 39.83 41.21 40.1 39.66 40.1C38.16 40.1 37.03 39.86 36.96 39.1L36.96 38.29C37.25 38.95 38.34 39.2 39.69 39.2C40.96 39.2 42.07 38.97 42.41 38.36L42.41 38.83L42.39 38.83ZM42.39 37.35C42.39 37.45 42.36 37.52 42.36 37.55C42.36 38.36 41.21 38.63 39.66 38.63C38.16 38.63 37.03 38.38 36.96 37.62L36.96 36.81C37.25 37.48 38.34 37.72 39.69 37.72C40.96 37.72 42.07 37.5 42.41 36.89L42.41 37.35L42.39 37.35ZM39.71 37.28C39.69 37.28 39.69 37.28 39.66 37.28C39.64 37.28 39.64 37.28 39.61 37.28C37.11 37.23 36.86 36.69 36.86 36.03C36.86 35.36 37.11 34.85 39.61 34.77C39.64 34.77 39.64 34.77 39.66 34.77C39.69 34.77 39.69 34.77 39.71 34.77C42.22 34.82 42.46 35.36 42.46 36.03C42.46 36.69 42.19 37.23 39.71 37.28Z" fill="#0C1523" fill-opacity="1.000000" fill-rule="nonzero"/>
</svg>
