<svg width="70.000000" height="70.000000" viewBox="0 0 70 70" fill="none" xmlns="http://www.w3.org/2000/svg" xmlns:xlink="http://www.w3.org/1999/xlink">
	<desc>
			Created with Pixso.
	</desc>
	<defs/>
	<g opacity="0.050000">
		<rect id="Rectangle 12" rx="6.000000" width="70.000000" height="70.000000" fill="#263959" fill-opacity="1.000000"/>
	</g>
	<path id="Vector" d="M26.8 35.82L21 35.82C21.19 39.26 22.62 42.46 25.08 44.92C27.56 47.4 30.8 48.83 34.27 49.01L34.27 43.21C30.34 42.86 27.19 39.74 26.8 35.82Z" fill="#263959" fill-opacity="1.000000" fill-rule="nonzero"/>
	<path id="Vector" d="M35.92 43.19L35.92 49C39.32 48.78 42.48 47.35 44.91 44.92C47.37 42.46 48.8 39.26 48.99 35.82L43.19 35.82C42.81 39.68 39.76 42.76 35.92 43.19Z" fill="#263959" fill-opacity="1.000000" fill-rule="nonzero"/>
	<path id="Vector" d="M34.27 26.79L34.27 21C30.8 21.17 27.56 22.61 25.08 25.08C22.62 27.54 21.19 30.74 21 34.18L26.8 34.18C27.19 30.26 30.34 27.14 34.27 26.79Z" fill="#263959" fill-opacity="1.000000" fill-rule="nonzero"/>
	<path id="Vector" d="M43.19 34.18L48.99 34.18C48.8 30.74 47.37 27.54 44.91 25.08C42.48 22.65 39.32 21.23 35.92 21.01L35.92 26.81C39.76 27.24 42.81 30.32 43.19 34.18Z" fill="#263959" fill-opacity="1.000000" fill-rule="nonzero"/>
	<path id="Vector" d="M33.41 34.18L33.41 35.27C33.41 35.52 33.37 35.7 33.29 35.82C33.19 35.99 33.03 36.06 32.83 36.06C32.63 36.06 32.47 35.99 32.38 35.82C32.3 35.7 32.26 35.52 32.26 35.27L32.26 34.18L32.26 33.25L30.99 33.25L30.99 34.18L30.99 35.31C30.99 35.49 31.01 35.66 31.05 35.82C31.23 36.63 31.86 37.08 32.82 37.08C33.47 37.08 33.96 36.88 34.27 36.5C34.52 36.21 34.65 35.8 34.65 35.31L34.65 33.25L34.27 33.25L33.41 33.25L33.41 34.18Z" fill="#263959" fill-opacity="1.000000" fill-rule="nonzero"/>
	<path id="Vector" d="M37.82 33.25L37.21 34.18L37.2 34.19L37.19 34.18L36.56 33.25L35.92 33.25L35.14 33.25L36.45 35.1L35.94 35.82L35.92 35.85L35.09 37L35.92 37L36.54 37L37.17 35.99L37.82 37L39.26 37L38.43 35.82L37.88 35.06L38.51 34.18L39.18 33.25L37.82 33.25Z" fill="#263959" fill-opacity="1.000000" fill-rule="nonzero"/>
</svg>
