<svg width="18.000000" height="16.000000" viewBox="0 0 18 16" fill="none" xmlns="http://www.w3.org/2000/svg" xmlns:xlink="http://www.w3.org/1999/xlink">
	<desc>
			Created with Pixso.
	</desc>
	<defs/>
	<path id="Vector" d="M16.5 2.25L12.75 2.25L12.75 1.5C12.75 0.67 12.07 0 11.25 0L6.75 0C5.92 0 5.25 0.67 5.25 1.5L5.25 2.25L1.5 2.25C0.67 2.25 0 2.92 0 3.75L0 6C0 6.82 0.67 7.5 1.5 7.5L7.5 7.5L7.5 7.12C7.5 6.91 7.66 6.75 7.87 6.75L10.12 6.75C10.33 6.75 10.5 6.91 10.5 7.12L10.5 7.5L16.5 7.5C17.32 7.5 18 6.82 18 6L18 3.75C18 2.92 17.32 2.25 16.5 2.25ZM11.25 2.25L6.75 2.25L6.75 1.5L11.25 1.5L11.25 2.25Z" fill="#00C389" fill-opacity="1.000000" fill-rule="nonzero"/>
	<path id="Vector" d="M17.79 7.9C17.66 7.84 17.51 7.85 17.39 7.94C17.13 8.14 16.82 8.25 16.49 8.25L10.5 8.25L10.5 9.37C10.5 9.58 10.33 9.75 10.12 9.75L7.87 9.75C7.66 9.75 7.5 9.58 7.5 9.37L7.5 8.25L1.5 8.25C1.17 8.25 0.86 8.14 0.6 7.94C0.48 7.85 0.33 7.84 0.2 7.9C0.08 7.96 0 8.09 0 8.24L0 13.5C0 14.32 0.67 15 1.5 15L16.5 15C17.32 15 18 14.32 18 13.5L18 8.24C18 8.09 17.91 7.96 17.79 7.9Z" fill="#00C389" fill-opacity="1.000000" fill-rule="nonzero"/>
</svg>
