<svg width="70.000000" height="70.000000" viewBox="0 0 70 70" fill="none" xmlns="http://www.w3.org/2000/svg" xmlns:xlink="http://www.w3.org/1999/xlink">
	<desc>
			Created with Pixso.
	</desc>
	<defs/>
	<g opacity="0.050000">
		<rect id="Rectangle 12" rx="6.000000" width="70.000000" height="70.000000" fill="#263959" fill-opacity="1.000000"/>
	</g>
	<path id="Vector" d="M30.65 24.66L31.62 24.66L31.62 25.62L30.65 25.62L30.65 24.66Z" fill="#263959" fill-opacity="1.000000" fill-rule="evenodd"/>
	<path id="Vector" d="M28.72 24.66L29.68 24.66L29.68 25.62L28.72 25.62L28.72 24.66Z" fill="#263959" fill-opacity="1.000000" fill-rule="evenodd"/>
	<path id="Vector" d="M26.79 24.66L27.75 24.66L27.75 25.62L26.79 25.62L26.79 24.66Z" fill="#263959" fill-opacity="1.000000" fill-rule="evenodd"/>
	<path id="Vector" d="M32.58 24.66L33.55 24.66L33.55 25.62L32.58 25.62L32.58 24.66Z" fill="#263959" fill-opacity="1.000000" fill-rule="evenodd"/>
	<path id="Vector" d="M38.37 24.66L39.34 24.66L39.34 25.62L38.37 25.62L38.37 24.66Z" fill="#263959" fill-opacity="1.000000" fill-rule="evenodd"/>
	<path id="Vector" d="M34.51 24.66L35.48 24.66L35.48 25.62L34.51 25.62L34.51 24.66Z" fill="#263959" fill-opacity="1.000000" fill-rule="evenodd"/>
	<path id="Vector" d="M38.01 31.78L39.54 31.02L48.8 21.76L48.03 21L38.77 30.25L38.01 31.78Z" fill="#263959" fill-opacity="1.000000" fill-rule="nonzero"/>
	<path id="Vector" d="M36.44 24.66L37.41 24.66L37.41 25.62L36.44 25.62L36.44 24.66Z" fill="#263959" fill-opacity="1.000000" fill-rule="evenodd"/>
	<path id="Vector" d="M24.86 24.66L25.82 24.66L25.82 25.62L24.86 25.62L24.86 24.66Z" fill="#263959" fill-opacity="1.000000" fill-rule="evenodd"/>
	<path id="Vector" d="M32.1 43.97L37.89 43.97L37.89 46.86L32.1 46.86L32.1 43.97Z" fill="#263959" fill-opacity="1.000000" fill-rule="evenodd"/>
	<path id="Vector" d="M23.41 35.28L40.79 35.28C40.92 35.28 41.04 35.23 41.13 35.14C41.22 35.05 41.27 34.92 41.27 34.8L41.27 30.65L40.16 31.76C40.13 31.79 40.09 31.82 40.04 31.85L37.14 33.3C37.05 33.34 36.95 33.36 36.85 33.34C36.75 33.33 36.65 33.28 36.58 33.21C36.51 33.14 36.46 33.04 36.45 32.94C36.43 32.84 36.45 32.74 36.49 32.65L37.94 29.75C37.96 29.71 37.99 29.66 38.03 29.63L41.27 26.39L41.27 23.21C41.27 23.08 41.22 22.96 41.13 22.87C41.04 22.78 40.92 22.73 40.79 22.73L23.41 22.73C23.28 22.73 23.16 22.78 23.07 22.87C22.98 22.96 22.93 23.08 22.93 23.21L22.93 34.8C22.93 34.92 22.98 35.05 23.07 35.14C23.16 35.23 23.28 35.28 23.41 35.28ZM39.34 33.35L40.31 33.35L40.31 34.31L39.34 34.31L39.34 33.35ZM37.41 33.35L38.37 33.35L38.37 34.31L37.41 34.31L37.41 33.35ZM26.79 34.31L25.82 34.31L25.82 33.35L26.79 33.35L26.79 34.31ZM26.79 32.38L25.82 32.38L25.82 31.42L26.79 31.42L26.79 32.38ZM26.79 30.45L25.82 30.45L25.82 29.48L26.79 29.48L26.79 30.45ZM26.79 28.52L25.82 28.52L25.82 27.55L26.79 27.55L26.79 28.52ZM28.72 34.31L27.75 34.31L27.75 33.35L28.72 33.35L28.72 34.31ZM28.72 32.38L27.75 32.38L27.75 31.42L28.72 31.42L28.72 32.38ZM28.72 30.45L27.75 30.45L27.75 29.48L28.72 29.48L28.72 30.45ZM28.72 28.52L27.75 28.52L27.75 27.55L28.72 27.55L28.72 28.52ZM30.65 34.31L29.68 34.31L29.68 33.35L30.65 33.35L30.65 34.31ZM30.65 32.38L29.68 32.38L29.68 31.42L30.65 31.42L30.65 32.38ZM30.65 30.45L29.68 30.45L29.68 29.48L30.65 29.48L30.65 30.45ZM30.65 28.52L29.68 28.52L29.68 27.55L30.65 27.55L30.65 28.52ZM32.58 34.31L31.62 34.31L31.62 33.35L32.58 33.35L32.58 34.31ZM32.58 32.38L31.62 32.38L31.62 31.42L32.58 31.42L32.58 32.38ZM32.58 30.45L31.62 30.45L31.62 29.48L32.58 29.48L32.58 30.45ZM32.58 28.52L31.62 28.52L31.62 27.55L32.58 27.55L32.58 28.52ZM34.51 34.31L33.55 34.31L33.55 33.35L34.51 33.35L34.51 34.31ZM34.51 32.38L33.55 32.38L33.55 31.42L34.51 31.42L34.51 32.38ZM34.51 30.45L33.55 30.45L33.55 29.48L34.51 29.48L34.51 30.45ZM34.51 28.52L33.55 28.52L33.55 27.55L34.51 27.55L34.51 28.52ZM36.44 34.31L35.48 34.31L35.48 33.35L36.44 33.35L36.44 34.31ZM36.44 32.38L35.48 32.38L35.48 31.42L36.44 31.42L36.44 32.38ZM36.44 30.45L35.48 30.45L35.48 29.48L36.44 29.48L36.44 30.45ZM36.44 28.52L35.48 28.52L35.48 27.55L36.44 27.55L36.44 28.52ZM38.37 28.52L37.41 28.52L37.41 27.55L38.37 27.55L38.37 28.52ZM23.89 24.17C23.89 24.05 23.94 23.92 24.03 23.83C24.12 23.74 24.25 23.69 24.37 23.69L39.82 23.69C39.95 23.69 40.07 23.74 40.16 23.83C40.25 23.92 40.31 24.05 40.31 24.17L40.31 26.11C40.31 26.23 40.25 26.36 40.16 26.45C40.07 26.54 39.95 26.59 39.82 26.59L24.37 26.59C24.25 26.59 24.12 26.54 24.03 26.45C23.94 26.36 23.89 26.23 23.89 26.11L23.89 24.17ZM23.89 27.55L24.86 27.55L24.86 28.52L23.89 28.52L23.89 27.55ZM23.89 29.48L24.86 29.48L24.86 30.45L23.89 30.45L23.89 29.48ZM23.89 31.42L24.86 31.42L24.86 32.38L23.89 32.38L23.89 31.42ZM23.89 33.35L24.86 33.35L24.86 34.31L23.89 34.31L23.89 33.35Z" fill="#263959" fill-opacity="1.000000" fill-rule="nonzero"/>
	<path id="Vector" d="M39.34 47.83L30.65 47.83C30.52 47.83 30.4 47.88 30.31 47.97C30.22 48.06 30.17 48.18 30.17 48.31L30.17 48.8L39.82 48.8L39.82 48.31C39.82 48.18 39.77 48.06 39.68 47.97C39.59 47.88 39.47 47.83 39.34 47.83Z" fill="#263959" fill-opacity="1.000000" fill-rule="nonzero"/>
	<path id="Vector" d="M21 41.55C21 41.94 21.15 42.31 21.42 42.58C21.69 42.85 22.06 43 22.44 43L47.55 43C47.93 43 48.3 42.85 48.57 42.58C48.84 42.31 49 41.94 49 41.55L49 40.11L21 40.11L21 41.55ZM46.58 41.07L47.55 41.07L47.55 42.04L46.58 42.04L46.58 41.07ZM44.65 41.07L45.62 41.07L45.62 42.04L44.65 42.04L44.65 41.07ZM42.72 41.07L43.68 41.07L43.68 42.04L42.72 42.04L42.72 41.07Z" fill="#263959" fill-opacity="1.000000" fill-rule="nonzero"/>
	<path id="Vector" d="M47.55 25.62L46.3 25.62L42.24 29.68L42.24 34.8C42.24 35.18 42.08 35.55 41.81 35.82C41.54 36.09 41.17 36.24 40.79 36.24L23.41 36.24C23.02 36.24 22.66 36.09 22.38 35.82C22.11 35.55 21.96 35.18 21.96 34.8L21.96 25.71C21.68 25.81 21.44 26 21.26 26.24C21.09 26.48 21 26.77 21 27.07L21 39.14L49 39.14L49 27.07C49 26.69 48.84 26.32 48.57 26.05C48.3 25.78 47.93 25.62 47.55 25.62Z" fill="#263959" fill-opacity="1.000000" fill-rule="nonzero"/>
</svg>
