<svg width="18.000000" height="19.000000" viewBox="0 0 18 19" fill="none" xmlns="http://www.w3.org/2000/svg" xmlns:xlink="http://www.w3.org/1999/xlink">
	<desc>
			Created with Pixso.
	</desc>
	<defs/>
	<path id="Vector" d="M15.36 13.11C14.87 12.62 14.14 12.52 13.55 12.8L12.72 11.97C12.5 12.25 12.25 12.5 11.97 12.72L12.8 13.55C12.52 14.14 12.62 14.87 13.11 15.36C13.73 15.98 14.74 15.98 15.36 15.36C15.98 14.74 15.98 13.73 15.36 13.11L15.36 13.11Z" fill="#00C489" fill-opacity="1.000000" fill-rule="nonzero"/>
	<path id="Vector" d="M16.41 7.41C15.72 7.41 15.13 7.85 14.91 8.47L13.73 8.47C13.63 7.55 13.26 6.71 12.72 6.02L13.55 5.19C14.14 5.47 14.87 5.37 15.36 4.88C15.98 4.26 15.98 3.25 15.36 2.63C14.74 2.01 13.73 2.01 13.11 2.63C12.62 3.12 12.52 3.85 12.8 4.44L11.97 5.27C11.28 4.73 10.44 4.36 9.52 4.26L9.52 3.08C11.18 2.47 10.79 0.03 9 0C7.2 0.03 6.81 2.47 8.47 3.08L8.47 4.26C7.55 4.36 6.71 4.73 6.02 5.27L5.19 4.44C5.47 3.85 5.37 3.12 4.88 2.63C3.32 1.2 1.2 3.33 2.63 4.88C3.12 5.37 3.85 5.47 4.44 5.19L5.27 6.02C4.73 6.71 4.36 7.55 4.26 8.47L3.08 8.47C2.47 6.81 0.03 7.2 0 9C0.03 10.79 2.47 11.18 3.08 9.52L4.26 9.52C4.37 10.53 4.8 11.45 5.44 12.17C5.71 11.2 6.49 10.29 7.42 9.88C6.2 8.54 7.17 6.34 9 6.35C10.82 6.34 11.79 8.54 10.57 9.88C11.5 10.29 12.28 11.2 12.55 12.17C13.19 11.45 13.62 10.53 13.73 9.52L14.91 9.52C15.52 11.18 17.96 10.78 18 8.99C18 8.12 17.28 7.41 16.41 7.41Z" fill="#00C489" fill-opacity="1.000000" fill-rule="nonzero"/>
	<path id="Vector" d="M10.05 8.47C10.05 7.88 9.58 7.41 9 7.41C7.59 7.46 7.59 9.47 9 9.52C9.58 9.52 10.05 9.05 10.05 8.47Z" fill="#00C489" fill-opacity="1.000000" fill-rule="nonzero"/>
	<path id="Vector" d="M11.63 12.96C11.22 9.8 6.77 9.8 6.36 12.96C6.98 13.37 7.69 13.64 8.47 13.73L8.47 14.91C6.81 15.52 7.2 17.96 9 18C10.79 17.96 11.18 15.52 9.52 14.91L9.52 13.73C10.3 13.64 11.01 13.37 11.63 12.96Z" fill="#00C489" fill-opacity="1.000000" fill-rule="nonzero"/>
	<path id="Vector" d="M5.27 11.97L4.44 12.8C3.85 12.52 3.12 12.62 2.63 13.11C2.01 13.73 2.01 14.74 2.63 15.36C3.25 15.98 4.26 15.98 4.88 15.36C5.37 14.87 5.47 14.14 5.19 13.55L6.02 12.72C5.74 12.5 5.49 12.25 5.27 11.97Z" fill="#00C489" fill-opacity="1.000000" fill-rule="nonzero"/>
</svg>
