<svg width="70.000000" height="70.000000" viewBox="0 0 70 70" fill="none" xmlns="http://www.w3.org/2000/svg" xmlns:xlink="http://www.w3.org/1999/xlink">
	<desc>
			Created with Pixso.
	</desc>
	<defs/>
	<g opacity="0.050000">
		<rect id="Rectangle 12" rx="6.000000" width="70.000000" height="70.000000" fill="#263959" fill-opacity="1.000000"/>
	</g>
	<path id="Vector" d="M43.32 41.86L42.75 43.36C42.63 43.59 42.52 43.82 42.4 43.94C42.4 44.05 39.52 46.13 39.63 46.13C39.17 46.47 38.6 46.59 38.02 46.36C37.56 46.13 37.21 45.78 37.1 45.32L25.68 45.32C25.34 45.32 25.11 45.09 25.11 44.74C25.11 44.4 25.34 44.17 25.68 44.17L36.87 44.17L36.52 41.75C36.52 41.63 36.52 41.63 36.52 41.52C36.52 41.4 36.52 41.4 36.52 41.28L25.68 41.28C25.34 41.28 25.11 41.05 25.11 40.71C25.11 40.36 25.34 40.13 25.68 40.13L36.98 40.13L38.13 37.25L25.68 37.25C25.34 37.25 25.11 37.02 25.11 36.67C25.11 36.33 25.34 36.1 25.68 36.1L38.6 36.1L39.75 33.22C39.75 33.22 39.75 33.22 39.63 33.22L25.68 33.22C25.34 33.22 25.11 32.98 25.11 32.64C25.11 32.29 25.34 32.06 25.68 32.06L39.75 32.06C39.98 32.06 40.09 32.18 40.21 32.29L42.17 27.57L42.86 25.95C42.98 25.61 43.21 25.26 43.44 25.03L43.44 22.72C43.44 21.8 42.63 21 41.71 21L23.72 21C22.8 21 22 21.8 22 22.72L22 46.93C22 47.86 22.8 48.66 23.72 48.66L41.59 48.66C42.52 48.66 43.32 47.86 43.32 46.93L43.32 46.47L43.32 46.36L43.32 41.86ZM28.91 24.34L36.52 24.34C36.87 24.34 37.1 24.57 37.1 24.91C37.1 25.26 36.87 25.49 36.52 25.49L28.91 25.49C28.57 25.49 28.34 25.26 28.34 24.91C28.34 24.57 28.57 24.34 28.91 24.34ZM25.68 28.26L39.75 28.26C40.09 28.26 40.33 28.49 40.33 28.83C40.33 29.18 40.09 29.41 39.75 29.41L25.68 29.41C25.34 29.41 25.11 29.18 25.11 28.83C25.11 28.6 25.34 28.26 25.68 28.26Z" fill="#263959" fill-opacity="1.000000" fill-rule="nonzero"/>
	<path id="Vector" d="M42.98 29.99C42.75 29.87 42.63 29.76 42.52 29.64L37.67 41.4C37.56 41.63 37.67 41.98 37.9 42.09L40.9 43.36C41.13 43.48 41.13 43.36 41.36 43.36C41.48 43.36 41.59 43.24 41.71 43.01L46.55 31.37C46.32 31.37 46.2 31.37 45.97 31.26L42.98 29.99Z" fill="#263959" fill-opacity="1.000000" fill-rule="nonzero"/>
	<path id="Vector" d="M46.67 25.49C46.09 25.26 45.51 25.26 45.05 25.49C44.48 25.72 44.13 26.18 43.9 26.64L43.09 28.26C42.98 28.49 43.09 28.83 43.44 28.95L46.44 30.22C46.67 30.33 47.01 30.22 47.13 29.87L47.82 28.26C48.28 27.22 47.82 25.95 46.67 25.49Z" fill="#263959" fill-opacity="1.000000" fill-rule="nonzero"/>
	<path id="Vector" d="M38.37 45.32C38.48 45.32 38.48 45.32 38.6 45.32C38.71 45.32 38.83 45.32 38.94 45.2L40.21 44.28L37.79 43.24L38.02 44.86C38.02 45.09 38.13 45.2 38.37 45.32Z" fill="#263959" fill-opacity="1.000000" fill-rule="nonzero"/>
</svg>
