<svg width="70.000000" height="70.000000" viewBox="0 0 70 70" fill="none" xmlns="http://www.w3.org/2000/svg" xmlns:xlink="http://www.w3.org/1999/xlink">
	<desc>
			Created with Pixso.
	</desc>
	<defs/>
	<g opacity="0.050000">
		<rect id="Rectangle 12" rx="6.000000" width="70.000000" height="70.000000" fill="#263959" fill-opacity="1.000000"/>
	</g>
	<path id="Vector" d="M49 35.5C49 33.82 47.92 32.44 46.56 32.27L46.56 23.29C46.56 23.29 46.56 23.29 46.56 23.28C46.56 23.26 46.55 23.24 46.54 23.22C46.54 23.2 46.54 23.18 46.53 23.17C46.53 23.15 46.51 23.14 46.5 23.12C46.49 23.11 46.48 23.09 46.47 23.08C46.47 23.07 46.47 23.07 46.46 23.07C46.45 23.06 46.44 23.05 46.43 23.05C46.41 23.03 46.4 23.02 46.38 23.02C46.36 23.01 46.34 23.01 46.32 23C46.3 23 46.29 23 46.28 23C46.28 23 46.28 23 46.27 23C46.25 23 46.23 23 46.21 23.01C46.19 23.01 46.18 23.02 46.17 23.02C46.15 23.03 46.14 23.04 46.12 23.05C46.11 23.07 46.09 23.08 46.08 23.09C46.08 23.09 46.07 23.09 46.07 23.1C45.46 23.85 44.78 24.6 44 25.33L44 45.66C44.78 46.39 45.46 47.14 46.07 47.89C46.07 47.9 46.08 47.9 46.08 47.9C46.1 47.92 46.12 47.94 46.15 47.95C46.16 47.96 46.16 47.97 46.17 47.97C46.2 47.99 46.24 48 46.28 48C46.32 48 46.35 47.99 46.38 47.97C46.4 47.97 46.41 47.96 46.42 47.95C46.43 47.94 46.45 47.93 46.46 47.92C46.47 47.92 46.47 47.92 46.47 47.91C46.48 47.9 46.49 47.88 46.5 47.86C46.51 47.85 46.53 47.84 46.53 47.82C46.54 47.81 46.54 47.79 46.54 47.77C46.55 47.75 46.56 47.73 46.56 47.71C46.56 47.7 46.56 47.7 46.56 47.7L46.56 38.72C47.92 38.55 49 37.17 49 35.5Z" fill="#263959" fill-opacity="1.000000" fill-rule="nonzero"/>
	<path id="Vector" d="M21 35.5C21 38.42 22.77 40.82 25 41L25 30C22.77 30.17 21 32.57 21 35.5Z" fill="#263959" fill-opacity="1.000000" fill-rule="nonzero"/>
	<path id="Vector" d="M26 40.52C26.35 40.52 26.68 40.53 27.02 40.54L27.87 47.73C27.87 47.75 27.88 47.76 27.88 47.78C27.89 47.79 27.89 47.81 27.9 47.83C27.91 47.85 27.92 47.86 27.93 47.88C27.94 47.89 27.95 47.9 27.96 47.91C27.98 47.93 28 47.94 28.02 47.95C28.03 47.96 28.04 47.97 28.05 47.97C28.09 47.99 28.12 48 28.16 48L31.11 48C31.12 48 31.13 47.99 31.14 47.99C31.16 47.99 31.17 47.98 31.18 47.98C31.2 47.98 31.22 47.97 31.24 47.96C31.25 47.95 31.27 47.94 31.28 47.93C31.3 47.92 31.31 47.91 31.33 47.9C31.34 47.88 31.35 47.87 31.36 47.85C31.37 47.83 31.38 47.82 31.38 47.8C31.39 47.78 31.39 47.76 31.4 47.74C31.4 47.73 31.4 47.71 31.4 47.7C31.4 47.69 31.4 47.69 31.4 47.68C31.4 47.68 31.4 47.67 31.4 47.67L30.65 40.76C36.65 41.38 40.38 43.13 43 45.2L43 26C39.76 28.55 34.83 30.63 26 30.67L26 40.52L26 40.52Z" fill="#263959" fill-opacity="1.000000" fill-rule="nonzero"/>
</svg>
