<svg width="70.000000" height="70.000000" viewBox="0 0 70 70" fill="none" xmlns="http://www.w3.org/2000/svg" xmlns:xlink="http://www.w3.org/1999/xlink">
	<desc>
			Created with Pixso.
	</desc>
	<defs/>
	<g opacity="0.050000">
		<rect id="Rectangle 12" rx="6.000000" width="70.000000" height="70.000000" fill="#263959" fill-opacity="1.000000"/>
	</g>
	<path id="Vector" d="M48.17 21L44.84 21C44.39 21 44.02 21.36 44.02 21.82L44.02 22.64L37.3 22.64C36.97 21.68 36.06 21 35 21C33.93 21 33.02 21.68 32.69 22.64L25.97 22.64L25.97 21.82C25.97 21.36 25.6 21 25.15 21L21.82 21C21.36 21 21 21.36 21 21.82L21 25.1C21 25.55 21.36 25.92 21.82 25.92L25.15 25.92C25.6 25.92 25.97 25.55 25.97 25.1L25.97 24.27L29.34 24.27C26.49 26.04 24.62 29.17 24.39 32.67C23.41 32.99 22.69 33.9 22.69 35C22.69 36.35 23.79 37.46 25.15 37.46C26.51 37.46 27.61 36.35 27.61 35C27.61 33.95 26.95 33.06 26.03 32.7C26.31 28.8 29.03 25.52 32.82 24.58C33.23 25.37 34.04 25.92 35 25.92C35.95 25.92 36.76 25.37 37.17 24.58C40.96 25.52 43.68 28.8 43.96 32.7C43.04 33.06 42.38 33.95 42.38 35C42.38 36.35 43.48 37.46 44.84 37.46C46.2 37.46 47.3 36.35 47.3 35C47.3 33.9 46.58 32.99 45.6 32.67C45.37 29.17 43.5 26.05 40.65 24.28L44.02 24.28L44.02 25.1C44.02 25.55 44.39 25.92 44.84 25.92L48.17 25.92C48.63 25.92 49 25.55 49 25.1L49 21.82C49 21.36 48.63 21 48.17 21Z" fill="#263959" fill-opacity="1.000000" fill-rule="nonzero"/>
	<path id="Vector" d="M40.58 47.98C40.15 46.66 38.91 45.66 37.46 45.66L32.53 45.66C31.08 45.66 29.84 46.66 29.41 47.98C29.25 48.48 29.68 49 30.21 49L39.78 49C40.31 49 40.74 48.48 40.58 47.98Z" fill="#263959" fill-opacity="1.000000" fill-rule="nonzero"/>
	<path id="Vector" d="M42.24 37.82L35.82 28.18L35.82 35.97C36.77 36.31 37.46 37.21 37.46 38.28C37.46 39.63 36.35 40.74 35 40.74C33.64 40.74 32.53 39.63 32.53 38.28C32.53 37.21 33.22 36.31 34.17 35.97L34.17 28.18L27.75 37.82C27.53 38.15 27.58 38.58 27.85 38.86C29.36 40.36 30.32 42.3 30.69 44.38C31.26 44.15 31.88 44.02 32.53 44.02L37.46 44.02C38.11 44.02 38.73 44.15 39.3 44.38C39.67 42.3 40.63 40.36 42.14 38.86C42.41 38.58 42.46 38.15 42.24 37.82Z" fill="#263959" fill-opacity="1.000000" fill-rule="nonzero"/>
	<path id="Vector" d="M35 37.46C34.54 37.46 34.17 37.82 34.17 38.28C34.17 38.73 34.54 39.1 35 39.1C35.45 39.1 35.82 38.73 35.82 38.28C35.82 37.82 35.45 37.46 35 37.46Z" fill="#263959" fill-opacity="1.000000" fill-rule="nonzero"/>
</svg>
