<svg width="17.000000" height="16.000000" viewBox="0 0 17 16" fill="none" xmlns="http://www.w3.org/2000/svg" xmlns:xlink="http://www.w3.org/1999/xlink">
	<desc>
			Created with Pixso.
	</desc>
	<defs/>
	<path id="Vector" d="M16.95 6.04C16.84 5.7 16.53 5.46 16.17 5.43L11.27 4.99L9.33 0.53C9.18 0.21 8.86 0 8.5 0C8.13 0 7.81 0.21 7.66 0.53L5.72 4.99L0.82 5.43C0.46 5.46 0.15 5.7 0.04 6.04C-0.07 6.38 0.03 6.75 0.3 6.98L4.01 10.18L2.92 14.91C2.84 15.26 2.98 15.62 3.27 15.83C3.43 15.94 3.61 16 3.8 16C3.96 16 4.12 15.95 4.26 15.87L8.5 13.38L12.73 15.87C13.04 16.05 13.43 16.03 13.72 15.83C14.01 15.62 14.15 15.26 14.07 14.91L12.98 10.18L16.69 6.98C16.96 6.75 17.06 6.38 16.95 6.04Z" fill="#F8B200" fill-opacity="1.000000" fill-rule="nonzero"/>
</svg>
