<svg width="12.000000" height="18.000000" viewBox="0 0 12 18" fill="none" xmlns="http://www.w3.org/2000/svg" xmlns:xlink="http://www.w3.org/1999/xlink">
	<desc>
			Created with Pixso.
	</desc>
	<defs/>
	<path id="Vector" d="M2.95 7.7L2.95 17.54C2.95 17.72 3.15 17.81 3.26 17.67L5.37 14.93C5.44 14.84 5.56 14.84 5.63 14.93L7.74 17.67C7.85 17.81 8.05 17.72 8.05 17.54L8.05 7.7L2.95 7.7Z" fill="#41F5C0" fill-opacity="1.000000" fill-rule="nonzero"/>
	<path id="Vector" d="M4.48 7.7L2.95 7.7L2.95 17.54C2.95 17.72 3.15 17.81 3.26 17.67L4.48 16.09L4.48 7.7Z" fill="#00C389" fill-opacity="1.000000" fill-rule="nonzero"/>
	<path id="Vector" d="M7.32 15.57C7.19 15.57 7.09 15.47 7.09 15.34L7.09 12.74C7.09 12.62 7.19 12.51 7.32 12.51C7.44 12.51 7.55 12.62 7.55 12.74L7.55 15.34C7.55 15.47 7.44 15.57 7.32 15.57Z" fill="#00C389" fill-opacity="1.000000" fill-rule="nonzero"/>
	<path id="Vector" d="M6.03 12.16C6.03 12.49 5.76 12.76 5.43 12.76C5.09 12.76 4.82 12.49 4.82 12.16C4.82 11.82 5.09 11.55 5.43 11.55C5.76 11.55 6.03 11.82 6.03 12.16Z" fill="#00C389" fill-opacity="1.000000" fill-rule="evenodd"/>
	<path id="Vector" d="M5.48 11.45C5.35 11.45 5.23 11.38 5.16 11.27C4.73 10.57 3.99 10.15 3.17 10.15C2.91 10.15 2.66 10.19 2.42 10.27C2.38 10.29 2.33 10.29 2.29 10.29C2.19 10.29 2.09 10.25 2.02 10.18C1.95 10.1 1.91 10.01 1.91 9.9L1.91 9.88C1.91 9.87 1.91 9.86 1.91 9.85C1.91 8.82 1.25 7.92 0.27 7.62C0.14 7.58 0.05 7.48 0.01 7.36L0.01 7.35C-0.02 7.24 0 7.11 0.07 7.02C0.36 6.64 0.52 6.18 0.54 5.71C0.56 5.2 0.4 4.67 0.09 4.23C0.03 4.16 0.02 4.06 0.05 3.97L0.06 3.93C0.06 3.92 0.08 3.88 0.09 3.85C0.12 3.75 0.2 3.68 0.3 3.65L0.34 3.64C1.38 3.38 2.1 2.45 2.1 1.38C2.1 1.37 2.1 1.36 2.1 1.35L2.1 1.32C2.1 1.19 2.16 1.07 2.27 0.99C2.27 0.99 2.3 0.97 2.3 0.97L2.31 0.97C2.37 0.93 2.44 0.91 2.51 0.91C2.56 0.91 2.61 0.92 2.65 0.94L2.66 0.94C2.94 1.06 3.24 1.12 3.55 1.12C4.29 1.12 5 0.76 5.44 0.15C5.51 0.05 5.62 0 5.75 0C5.87 0 5.98 0.05 6.05 0.15C6.5 0.74 7.18 1.08 7.92 1.08C8 1.08 8.09 1.07 8.18 1.07C8.29 1.05 8.4 1.03 8.53 1C8.56 0.99 8.59 0.98 8.62 0.98C8.7 0.98 8.77 1.01 8.83 1.05L8.84 1.06C8.84 1.06 8.88 1.09 8.88 1.09C8.97 1.15 9.02 1.26 9.02 1.38L9.02 1.42C9.02 1.43 9.02 1.44 9.02 1.46C9.02 2.48 9.7 3.4 10.69 3.69C10.8 3.73 10.9 3.82 10.94 3.93C10.98 4.05 10.96 4.18 10.89 4.28C10.61 4.67 10.47 5.13 10.47 5.61C10.47 6.11 10.62 6.59 10.92 6.99C10.99 7.09 11.01 7.22 10.98 7.33C10.94 7.45 10.86 7.54 10.74 7.58C9.83 7.91 9.21 8.79 9.21 9.76C9.21 9.97 9.04 10.14 8.83 10.14C8.79 10.14 8.74 10.13 8.7 10.12C8.46 10.04 8.21 10 7.95 10C7.08 10 6.29 10.47 5.89 11.24L5.89 11.25C5.82 11.37 5.69 11.45 5.55 11.45C5.53 11.45 5.51 11.45 5.51 11.45L5.48 11.45Z" fill="#00C389" fill-opacity="1.000000" fill-rule="nonzero"/>
	<path id="Vector" d="M6.3 10.15C6.04 10.15 5.79 10.19 5.54 10.27C5.5 10.29 5.46 10.29 5.42 10.29C5.32 10.29 5.22 10.25 5.15 10.18C5.08 10.1 5.04 10.01 5.04 9.9L5.04 9.88C5.04 9.87 5.04 9.86 5.04 9.85C5.04 8.82 4.38 7.92 3.39 7.62C3.27 7.58 3.18 7.48 3.14 7.36L3.14 7.35C3.1 7.24 3.13 7.11 3.2 7.02C3.49 6.63 3.65 6.18 3.67 5.71C3.69 5.2 3.53 4.67 3.22 4.23C3.16 4.16 3.15 4.06 3.18 3.97L3.19 3.93C3.19 3.92 3.2 3.88 3.22 3.85C3.25 3.75 3.33 3.68 3.43 3.65L3.47 3.64C4.51 3.38 5.23 2.45 5.23 1.38C5.23 1.37 5.23 1.36 5.23 1.35L5.23 1.32C5.23 1.19 5.29 1.07 5.4 0.99C5.4 0.99 5.42 0.97 5.42 0.97L5.43 0.97C5.5 0.93 5.56 0.91 5.64 0.91C5.69 0.91 5.74 0.92 5.78 0.94L5.79 0.94C6.07 1.06 6.37 1.12 6.68 1.12C6.91 1.12 7.14 1.08 7.36 1.01C6.84 0.89 6.38 0.59 6.05 0.15C5.98 0.05 5.87 0 5.75 0C5.62 0 5.51 0.05 5.44 0.15C5 0.76 4.29 1.12 3.55 1.12C3.24 1.12 2.94 1.06 2.66 0.94L2.65 0.94C2.61 0.92 2.56 0.91 2.51 0.91C2.44 0.91 2.37 0.93 2.31 0.97L2.3 0.97C2.3 0.97 2.27 0.99 2.27 0.99C2.16 1.07 2.1 1.19 2.1 1.32L2.1 1.35C2.1 1.36 2.1 1.37 2.1 1.38C2.1 2.45 1.38 3.38 0.34 3.64L0.3 3.65C0.2 3.68 0.12 3.75 0.09 3.85C0.08 3.88 0.06 3.92 0.06 3.93L0.05 3.97C0.02 4.06 0.03 4.16 0.09 4.23C0.4 4.67 0.56 5.2 0.54 5.71C0.52 6.18 0.36 6.63 0.07 7.02C0 7.11 -0.02 7.24 0.01 7.35L0.01 7.36C0.05 7.48 0.14 7.58 0.27 7.62C1.25 7.92 1.91 8.82 1.91 9.85C1.91 9.86 1.91 9.87 1.91 9.88L1.91 9.9C1.91 10.01 1.95 10.1 2.02 10.18C2.09 10.25 2.19 10.29 2.29 10.29C2.33 10.29 2.38 10.29 2.42 10.27C2.66 10.19 2.91 10.15 3.17 10.15C3.99 10.15 4.73 10.57 5.16 11.27C5.23 11.38 5.35 11.45 5.48 11.45L5.51 11.45C5.51 11.45 5.53 11.45 5.55 11.45C5.69 11.45 5.82 11.37 5.89 11.25L5.89 11.24C6.12 10.8 6.49 10.45 6.93 10.23C6.72 10.18 6.51 10.15 6.3 10.15Z" fill="#00C389" fill-opacity="1.000000" fill-rule="nonzero"/>
	<path id="Vector" d="M9.52 5.72C9.52 7.94 7.72 9.74 5.5 9.74C3.28 9.74 1.48 7.94 1.48 5.72C1.48 3.5 3.28 1.7 5.5 1.7C7.72 1.7 9.52 3.5 9.52 5.72Z" fill="#41F5C0" fill-opacity="1.000000" fill-rule="evenodd"/>
	<path id="Vector" d="M8.75 5.72C8.75 7.52 7.3 8.97 5.5 8.97C3.7 8.97 2.25 7.52 2.25 5.72C2.25 3.92 3.7 2.47 5.5 2.47C7.3 2.47 8.75 3.92 8.75 5.72Z" fill="#00C389" fill-opacity="1.000000" fill-rule="evenodd"/>
	<path id="Vector" d="M5.28 3.72L4.85 4.59C4.81 4.68 4.72 4.75 4.62 4.76L3.66 4.9C3.45 4.93 3.37 5.18 3.52 5.32L4.22 6C4.29 6.07 4.32 6.17 4.31 6.27L4.14 7.23C4.11 7.43 4.32 7.58 4.5 7.49L5.36 7.03C5.45 6.99 5.55 6.99 5.64 7.03L6.51 7.49C6.68 7.58 6.89 7.43 6.86 7.23L6.7 6.27C6.68 6.17 6.71 6.07 6.78 6L7.48 5.32C7.63 5.18 7.55 4.93 7.35 4.9L6.38 4.76C6.28 4.75 6.2 4.68 6.15 4.59L5.72 3.72C5.63 3.54 5.37 3.54 5.28 3.72Z" fill="#41F5C0" fill-opacity="1.000000" fill-rule="nonzero"/>
	<path id="Vector" d="M6.59 8.5C6.5 8.5 6.41 8.44 6.38 8.36C6.33 8.24 6.38 8.11 6.5 8.06C6.51 8.05 7.5 7.64 7.76 6.83C7.8 6.71 7.93 6.64 8.05 6.68C8.17 6.72 8.24 6.85 8.2 6.97C7.87 7.99 6.72 8.46 6.67 8.48C6.65 8.49 6.62 8.5 6.59 8.5Z" fill="#41F5C0" fill-opacity="1.000000" fill-rule="nonzero"/>
	<path id="Vector" d="M5.11 6.46C5.12 6.36 5.09 6.26 5.02 6.19L4.32 5.51C4.18 5.37 4.26 5.12 4.46 5.09L5.42 4.95C5.52 4.94 5.61 4.87 5.65 4.78L5.95 4.18L5.72 3.72C5.63 3.54 5.37 3.54 5.28 3.72L4.85 4.59C4.81 4.68 4.72 4.75 4.62 4.76L3.66 4.9C3.45 4.93 3.37 5.18 3.52 5.32L4.22 6C4.29 6.07 4.32 6.17 4.31 6.27L4.14 7.23C4.11 7.43 4.32 7.58 4.5 7.49L4.97 7.24L5.11 6.46Z" fill="#41F5C0" fill-opacity="1.000000" fill-rule="nonzero"/>
	<path id="Vector" d="M8.98 5.72C8.98 5.9 8.97 6.08 8.94 6.25L9.25 6.29C9.27 6.1 9.29 5.91 9.29 5.72C9.29 4.67 8.85 3.71 8.16 3.02L8.03 3.33C8.62 3.96 8.98 4.8 8.98 5.72Z" fill="#00C389" fill-opacity="1.000000" fill-rule="nonzero"/>
</svg>
